<svg xmlns="http://www.w3.org/2000/svg" viewBox="0 0 204.7 96.8" enable-background="new 0 0 204.7 96.8"><g fill="#59585A"><path d="M98.5 92.9c-6 0-10.4-.8-13.3-2.4-2.9-1.6-4.3-4.6-4.3-8.9 0-1.9.5-3.6 1.4-5 .5-.8 1.2-1.6 2.1-2.4 1.3-1.2 1.1-2.9.4-4.6-.4-.9-.6-2-.6-3.2 0-1.1.7-2.8 2.1-5.1l.4-.6c.2-.3-1.3-1.5-2.7-3.2-1.8-2.3-2.7-5.3-2.7-9.2 0-4.7 1.4-8.2 4.3-10.4 2.8-2.2 6.7-3.3 11.5-3.3 2.3 0 4.6.3 6.9.8 0 0 .3.1.6.1.3.1 2.4.1 4.6 0l4.2-.1c2.2-.1 4 1.4 4 3.4 0 1.9-1.5 3.4-3.3 3.3s-2.2 1-1.7 2.9c.3 1.1.5 2.2.5 3.4 0 5.2-1.3 8.7-3.9 10.7-2.6 2-6.7 3-12.2 3-.6 0-1.2 0-1.7-.1-1-.1-2.1.6-2.5 1.8-.2.8-.4 1.5-.4 2.1 0 1 .5 1.6 1.5 2 1 .4 3.3.6 7.1.6 6.3.1 10.5.9 12.9 2.5 2.3 1.6 3.5 4.7 3.5 9.2 0 8.4-6.2 12.7-18.7 12.7zm-7-8.2c1.5.8 4 1.2 7.6 1.2 6.4 0 9.5-1.8 9.5-5.4 0-2.1-.6-3.4-1.7-3.9-1.1-.6-3.4-.9-6.7-.9 0 0-1.7-.1-3.9-.2-2.1-.1-4.5.3-5.2 1-.5.5-.8 1-1.1 1.4-.5.8-.7 1.8-.7 3 0 1.7.7 3 2.2 3.8zm.1-31.3c1.2 1.1 3 1.7 5.6 1.7 2.6 0 4.4-.6 5.6-1.7 1.1-1.1 1.7-2.9 1.7-5.3s-.6-4.2-1.7-5.3c-1.2-1.1-3-1.7-5.6-1.7-4.8 0-7.3 2.3-7.3 7 0 2.4.6 4.2 1.7 5.3zM121.5 70.6v-47.8c0-2.2 1.8-4 4-4h.5c2.2 0 4 1.8 4 4v47.8c0 2.2-1.8 4-4 4h-.5c-2.2 0-4-1.8-4-4zM162.7 35.2h.5c2.2 0 4 1.8 4 4v31.4c0 2.2-1.8 4-4 4h-.5c-2.2 0-4-.5-4-1.2s-1.5-.3-3.6.6c-2.5 1-4.8 1.5-7 1.5-5.4 0-9-1.5-10.9-4.4-1.8-2.9-2.8-8-2.8-15.3v-16.6c0-2.2 1.8-4 4-4h.5c2.2 0 4 1.8 4 4v16.6c0 4.7.4 7.9 1.2 9.5.8 1.6 2.6 2.4 5.5 2.4 2.8 0 5.4-.5 7.8-1.6l.6-.2s.6-2 .6-4.3v-22.4c.1-2.2 1.9-4 4.1-4zM202.1 67.4c.6-.1 1.1 1.3 1.2 3.1 0 1.8-1.7 3.6-3.9 3.9-4.4.7-8.4 1.1-12 1.1-5.8 0-10-1.6-12.6-4.8-2.6-3.2-3.8-8.3-3.8-15.4 0-14 5.7-21 17.1-21 11 0 16.6 6 16.6 18.1 0 0-.1 1.4-.3 3.1-.2 1.7-2.1 3.1-4.3 3.1h-16.4c-2.2 0-4.1 1.7-3.6 3.8.5 2 3 4.7 5.2 5.3 1.2.3 2.5.4 4.2.4 3.7 0 7.6-.2 11.5-.5 0-.1.5-.1 1.1-.2zm-6.1-19.5c-.3-1.8-.8-3.2-1.6-4.2-1.2-1.5-3.3-2.3-6.3-2.3-2.9 0-5.1.8-6.4 2.4-.8 1-1.4 2.3-1.7 4-.4 2.2 1.4 4 3.6 4h8.6c2.3.1 4.2-1.7 3.8-3.9z"/></g><path fill="#59585A" d="M32 0c-1.7 0-3.2.9-4.1 2.5l-.1.2-.1.3-2.7 6.6c-.9 1.6-1.5 4-1.5 5.7v6.5c0 3.2 2.6 5.7 5.7 5.7h5.5c3.2 0 5.7-2.6 5.7-5.7v-6.5c0-1.8-.6-4.1-1.5-5.7l-2.5-6.6-.1-.3-.1-.2c-1-1.6-2.5-2.5-4.2-2.5zM59.7 60.1c-.6-.6-.9-1.6-.9-3.1v-20c0-2.3-.6-4.1-1.8-5.3-1.2-1.2-3-1.8-5.5-1.8h-38.9c-2.5 0-4.2.5-5.1 1.4-.9.9-1.5 1.8-1.8 2.6-.3.8-.4 1.8-.4 3.1v20c0 1.4-.2 2.4-.7 2.8-.5.5-.9.8-1.3.9-.4.3-.9.3-1.4.3h-.9s-1 1.1-1 2.3v.1c0 1.3.4 2.3.9 2.3h.9c1 0 1.8.3 2.4.9.6.6.9 1.7.9 3.1v20c0 2.3.6 4.1 1.8 5.3 1.2 1.2 3 1.8 5.5 1.8h38.99999999999999c2.5 0 4.2-.5 5.1-1.4.9-.9 1.5-1.8 1.8-2.6.3-.8.4-1.9.4-3.1v-20c0-1.4.2-2.4.7-2.8.5-.5.9-.8 1.3-.9.4-.2.9-.3 1.4-.3h.9c.5 0 .9-1 .9-2.3v-.1c0-1.3-.4-2.3-.9-2.3h-.9c-.9 0-1.7-.3-2.4-.9z"/><path fill="#F0F3E6" d="M53.6 68.4v19.8c0 1.7-.2 2.8-.7 3.3-.5.5-1.5.7-3 .7h-35.7c-1.5 0-2.5-.2-3-.7-.5-.5-.7-1.6-.7-3.2v-19.8c0-1.2-.2-2.2-.7-3-.3-.5-.6-.9-1.2-1.3-.8-.6-.9-1.1-.2-1.6.4-.3.8-.6 1.1-1 .6-.7.9-1.8.9-3.3v-19.7c0-1.7.2-2.7.7-3.2.5-.5 1.5-.7 3-.7h35.7c1.5 0 2.5.2 3 .7.5.5.7 1.6.7 3.2v19.7c0 1.5.3 2.6.9 3.3.3.4.7.7 1.2 1 .7.5.6 1-.2 1.6-.5.4-.9.8-1.2 1.3-.4.7-.6 1.7-.6 2.9z"/><path fill="#EF9044" d="M32 3.4c.4 0 .8.3 1.2.8l2.7 6.9c.6 1.1 1.2 3 1.2 4.3v6.5c0 1.3-1 2.3-2.3 2.3h-5.5c-1.3 0-2.3-1-2.3-2.3v-6.5c0-1.3.5-3.2 1.2-4.3l2.7-6.9c.3-.5.7-.8 1.1-.8"/><path fill="#59585A" d="M42.3 33.9h-20.6c-1.3 0-2.3-1-2.3-2.3v-7.4c0-1.3 1-2.3 2.3-2.3h20.6c1.3 0 2.3 1 2.3 2.3v7.4c0 1.2-1 2.3-2.3 2.3z"/><path fill="#BFB9AF" d="M49.2 53.5c0 1.9-1.5 3.4-3.4 3.4h-27.5c-1.9 0-3.4-1.5-3.4-3.4v-10.3c0-1.9 1.5-3.4 3.4-3.4h27.5c1.9 0 3.4 1.5 3.4 3.4v10.3z"/></svg>